#!OML:ASF Y:\EmotionMaleHayes\Project 1\Capture day 1\Session 1\Male1.ASF
:FULLY-SPECIFIED
:DEGREES
1
root -29.1244 17.162 0.900035 30.2047 85.2174 30.2862
lowerback 6.68566 1.63922 -5.01433
upperback 0.993826 1.83288 -0.506848
thorax -2.86054 0.973139 2.12157
lowerneck -22.1001 2.70567 3.34995
upperneck 25.199 3.51882 -2.19627
head 12.0694 1.68457 -0.781499
rclavicle -4.28629e-015 -1.10325e-014
rhumerus -33.6751 7.87912 -92.3436
rradius 27.1476
rwrist 8.58602
rhand -12.8361 -27.9507
rfingers 7.12502
rthumb 13.2512 -57.5095
lclavicle -4.28629e-015 -1.10325e-014
lhumerus -31.4585 -12.297 92.8004
lradius 22.2796
lwrist -17.0184
lhand -14.0462 -26.4474
lfingers 7.12502
lthumb 12.0846 3.18368
rfemur 9.62139 -5.96206 12.7109
rtibia 2.44943
rfoot -15.61 -7.06783
rtoes 11.5188
lfemur 12.069 0.837616 -18.0847
ltibia -1.6581
lfoot -12.0586 12.4466
ltoes -5.57062
2
root -29.1234 17.1581 0.902205 28.9559 85.1951 29.0142
lowerback 6.66248 1.6303 -4.96076
upperback 0.990368 1.82644 -0.47946
thorax -2.84995 0.969124 2.1211
lowerneck -22.0576 2.74635 3.32694
upperneck 25.1095 3.56278 -2.13401
head 12.0257 1.70981 -0.7475
rclavicle 7.47927e-015 -1.08338e-014
rhumerus -33.6186 7.71251 -92.1983
rradius 27.0615
rwrist 8.66376
rhand -12.9056 -27.8931
rfingers 7.12502
rthumb 13.1842 -57.4562
lclavicle 7.47927e-015 -1.08338e-014
lhumerus -31.4052 -11.8592 92.4902
lradius 22.0911
lwrist -17.4924
lhand -13.0987 -26.6589
lfingers 7.12502
lthumb 12.9981 2.91617
rfemur 9.62076 -5.74793 12.8797
rtibia 2.36456
rfoot -15.6305 -7.25689
rtoes 11.8191
lfemur 12.0688 0.936845 -17.9268
ltibia -1.66933
lfoot -12.1413 12.3852
ltoes -4.69421
3
root -29.1239 17.151 0.900644 28.02 85.1147 27.87
lowerback 6.47056 1.65236 -4.86151
upperback 0.92509 1.86969 -0.520019
thorax -2.8091 0.989084 2.02354
lowerneck -21.965 2.75053 3.31547
upperneck 25.0126 3.52813 -1.98832
head 11.9653 1.71308 -0.697982
rclavicle -1.9866e-014 8.54774e-015
rhumerus -33.5734 7.32127 -92.0034
rradius 27.0541
rwrist 8.58781
rhand -12.6774 -27.5595
rfingers 7.12502
rthumb 13.4041 -57.1083
lclavicle -1.9866e-014 8.54774e-015
lhumerus -31.3985 -11.752 92.2604
lradius 22.0498
lwrist -18.086
lhand -13.1576 -26.4429
lfingers 7.12502
lthumb 12.9413 3.13582
rfemur 9.35286 -5.77035 12.935
rtibia 2.40071
rfoot -15.5869 -7.17411
rtoes 11.144
lfemur 11.883 0.933586 -17.8989
ltibia -1.70918
lfoot -12.1843 12.4658
ltoes -3.96969
4
root -29.1216 17.1576 0.897411 27.5924 85.0512 27.5715
lowerback 6.59923 1.68361 -4.83561
upperback 0.951412 1.90659 -0.540457
thorax -2.85485 1.00794 1.98138
lowerneck -21.8817 2.74636 3.34155
upperneck 24.9599 3.49979 -1.9399
head 11.9272 1.71014 -0.689943
rclavicle -1.45361e-014 2.38542e-015
rhumerus -33.6152 7.2617 -91.9436
rradius 27.1129
rwrist 8.6738
rhand -12.7179 -27.5509
rfingers 7.12502
rthumb 13.3651 -57.1022
lclavicle -1.45361e-014 2.38542e-015
lhumerus -31.497 -12.0021 92.2882
lradius 22.0161
lwrist -17.5873
lhand -14.7684 -26.2341
lfingers 7.12502
lthumb 11.3881 3.43668
rfemur 9.48108 -6.07552 12.7802
rtibia 2.44238
rfoot -15.4535 -6.87646
rtoes 10.2838
lfemur 12.0787 0.924513 -17.9396
ltibia -1.7936
lfoot -12.1455 12.5194
ltoes -4.13939
5
root -29.1207 17.1584 0.896776 27.928 84.9336 27.9254
lowerback 6.59482 1.693 -4.95915
upperback 0.958596 1.91127 -0.530222
thorax -2.84961 1.01146 2.06086
lowerneck -21.8782 2.75516 3.33822
upperneck 24.9803 3.52284 -1.96668
head 11.9357 1.71679 -0.695522
rclavicle 1.2921e-015 6.16232e-015
rhumerus -33.5687 7.18004 -91.7651
rradius 27.0908
rwrist 8.64564
rhand -12.753 -27.3791
rfingers 7.12502
rthumb 13.3313 -56.9326
lclavicle 1.2921e-015 6.16232e-015
lhumerus -31.5525 -12.0178 92.2567
lradius 22.0193
lwrist -17.4211
lhand -13.7524 -26.1558
lfingers 7.12502
lthumb 12.3678 3.45834
rfemur 9.43334 -6.37634 12.5335
rtibia 2.5683
rfoot -15.3353 -6.51699
rtoes 9.90467
lfemur 12.0609 1.3343 -17.8908
ltibia -1.70297
lfoot -12.076 12.2272
ltoes -5.05806
6
root -29.1214 17.1569 0.89716 28.65 84.9163 28.6083
lowerback 6.56169 1.65103 -5.04787
upperback 0.948473 1.85088 -0.52301
thorax -2.84016 0.982294 2.12441
lowerneck -21.9509 2.82171 3.36106
upperneck 25.0621 3.61627 -1.98669
head 11.9856 1.75772 -0.690123
rclavicle 2.0363e-014 -2.98177e-015
rhumerus -33.6155 7.40147 -91.7945
rradius 27.3183
rwrist 8.41431
rhand -12.7848 -27.9837
rfingers 7.12502
rthumb 13.3006 -57.5392
lclavicle 2.0363e-014 -2.98177e-015
lhumerus -31.5017 -11.7862 92.0772
lradius 21.8782
lwrist -17.5891
lhand -15.0058 -26.4381
lfingers 7.12502
lthumb 11.1592 3.24519
rfemur 9.36141 -6.5281 12.4013
rtibia 2.65086
rfoot -15.362 -6.31472
rtoes 9.91936
lfemur 11.9647 1.75971 -17.7969
ltibia -1.61304
lfoot -11.896 11.8282
ltoes -5.14867
7
root -29.119 17.1573 0.895311 28.6796 84.8846 28.6557
lowerback 6.55782 1.62043 -5.06338
upperback 0.958322 1.80999 -0.512754
thorax -2.82551 0.961713 2.14784
lowerneck -21.8424 2.80343 3.28102
upperneck 25.0469 3.61516 -1.95658
head 11.9559 1.7551 -0.666839
rclavicle -7.46685e-015 2.43511e-014
rhumerus -33.628 7.49462 -91.7519
rradius 27.4367
rwrist 8.35437
rhand -12.8008 -28.1929
rfingers 7.12502
rthumb 13.2852 -57.7494
lclavicle -7.46685e-015 2.43511e-014
lhumerus -31.4121 -11.4659 91.8514
lradius 21.6686
lwrist -17.9136
lhand -13.3657 -26.4001
lfingers 7.12502
lthumb 12.7406 3.19117
rfemur 9.38255 -6.62187 12.3323
rtibia 2.67975
rfoot -15.3449 -6.21839
rtoes 10.0816
lfemur 12.0334 1.76919 -17.8377
ltibia -1.70362
lfoot -11.8078 11.8513
ltoes -5.76248
8
root -29.1165 17.1574 0.893775 28.778 84.8298 28.7558
lowerback 6.52983 1.61133 -5.06974
upperback 0.969431 1.79946 -0.522008
thorax -2.79744 0.955786 2.14373
lowerneck -21.8943 2.85641 3.27714
upperneck 25.0717 3.68023 -1.92194
head 11.9769 1.78775 -0.64167
rclavicle -4.44781e-015 -8.15017e-015
rhumerus -33.5544 7.35093 -91.6122
rradius 27.4385
rwrist 8.5003
rhand -12.7174 -28.2303
rfingers 7.12502
rthumb 13.3656 -57.7816
lclavicle -4.44781e-015 -8.15017e-015
lhumerus -31.3939 -11.3475 91.7097
lradius 21.5375
lwrist -18.1005
lhand -13.0623 -26.5222
lfingers 7.12502
lthumb 13.0331 3.0506
rfemur 9.403 -6.57629 12.2813
rtibia 2.6171
rfoot -15.2722 -6.17617
rtoes 10.598
lfemur 12.1092 1.40013 -18.0291
ltibia -1.84472
lfoot -11.9059 12.2871
ltoes -5.81442
9
root -29.1171 17.1567 0.892834 29.1315 84.7951 29.0764
lowerback 6.52209 1.60461 -5.07569
upperback 0.962686 1.78953 -0.560168
thorax -2.7983 0.950988 2.10861
lowerneck -21.9138 2.85633 3.29172
upperneck 25.0914 3.6724 -1.91356
head 11.9883 1.78664 -0.641989
rclavicle -2.12451e-015 4.27387e-015
rhumerus -33.4271 7.04149 -91.4538
rradius 27.3522
rwrist 8.71249
rhand -12.6951 -27.9868
rfingers 7.12502
rthumb 13.3871 -57.5367
lclavicle -2.12451e-015 4.27387e-015
lhumerus -31.3888 -11.2496 91.556
lradius 21.4459
lwrist -18.2855
lhand -13.6021 -26.3704
lfingers 7.12502
lthumb 12.5127 3.235
rfemur 9.35631 -6.57417 12.2098
rtibia 2.59758
rfoot -15.2819 -6.01947
rtoes 11.4835
lfemur 12.0794 1.07482 -18.194
ltibia -1.88277
lfoot -12.0017 12.6925
ltoes -5.7847
10
root -29.1168 17.1565 0.891712 28.8057 84.7647 28.7625
lowerback 6.55879 1.58133 -5.08827
upperback 0.96539 1.75602 -0.538611
thorax -2.81455 0.934821 2.14021
lowerneck -21.9518 2.90752 3.2858
upperneck 25.1297 3.74499 -1.9048
head 12.0125 1.81933 -0.624938
rclavicle -7.36746e-015 7.05686e-015
rhumerus -33.286 6.84768 -91.2753
rradius 27.2199
rwrist 8.84882
rhand -12.6966 -27.3747
rfingers 7.12502
rthumb 13.3857 -56.9247
lclavicle -7.36746e-015 7.05686e-015
lhumerus -31.3113 -10.7611 91.3111
lradius 21.3469
lwrist -18.7349
lhand -14.8896 -25.7281
lfingers 7.12502
lthumb 11.2712 3.94903
rfemur 9.34225 -6.61969 12.176
rtibia 2.65738
rfoot -15.3545 -5.79259
rtoes 12.2284
lfemur 11.9537 1.45756 -18.0434
ltibia -1.6206
lfoot -11.994 12.4196
ltoes -6.51868
